<svg width="582" height="560" viewBox="0 0 582 560" fill="none" xmlns="http://www.w3.org/2000/svg">
<path opacity="0.1" d="M552.781 277.038C552.781 339.942 531.648 397.837 496.613 444.598C477.149 469.649 453.792 491.916 427.098 509.173C383.721 537.564 332.002 554.264 276.39 554.264C123.458 554.264 0 430.124 0 277.594C0 124.508 124.014 0.924805 276.39 0.924805C332.002 0.924805 383.721 17.6252 427.098 45.4591C453.792 62.7162 477.149 84.9834 496.613 110.034C532.204 156.238 552.781 214.133 552.781 277.038Z" fill="#EAEEF9"/>
<path d="M480.065 24.2197H462.178V35.939H480.065V24.2197Z" fill="#B3BFCF"/>
<path d="M480.065 24.2197H462.178V29.2981H480.065V24.2197Z" fill="#9FADBF"/>
<path d="M411.629 48.0493L401.908 57.8154L408.907 64.847L418.629 55.0809L411.629 48.0493Z" fill="#B3BFCF"/>
<path d="M525.948 54.2996L535.669 64.0657L541.891 57.8154L532.17 48.0493L525.948 54.2996Z" fill="#B3BFCF"/>
<g filter="url(#filter0_d_82_4640)">
<path d="M472.288 208.214C520.116 208.214 559.001 169.149 559.001 121.1C559.001 73.0507 520.116 33.9863 472.288 33.9863C424.46 33.9863 385.575 73.0507 385.575 121.1C385.575 169.149 424.46 208.214 472.288 208.214Z" fill="#F0F3F9"/>
<path d="M472.288 208.214C520.116 208.214 559.001 169.149 559.001 121.1C559.001 73.0507 520.116 33.9863 472.288 33.9863C424.46 33.9863 385.575 73.0507 385.575 121.1C385.575 169.149 424.46 208.214 472.288 208.214Z" stroke="#CDD5E4" stroke-width="0.5522" stroke-miterlimit="10"/>
</g>
<path d="M539.946 121.1C539.946 121.881 539.946 122.663 539.946 123.444C538.78 159.774 508.839 189.072 472.287 189.072C435.736 189.072 405.794 159.774 404.628 123.444C404.628 122.663 404.628 121.881 404.628 121.1C404.628 84.3794 433.403 54.2999 469.954 53.1279C470.732 53.1279 471.509 53.1279 472.287 53.1279C509.227 53.1279 539.169 82.8169 539.946 119.928C539.946 120.319 539.946 120.709 539.946 121.1Z" fill="#EDF0FC"/>
<path d="M539.946 123.443C538.78 159.773 508.839 189.071 472.287 189.071C435.736 189.071 405.794 159.773 404.628 123.443C405.794 87.1132 435.736 57.8149 472.287 57.8149C509.227 57.8149 538.78 86.7226 539.946 123.443Z" fill="white"/>
<path d="M490.564 164.461H451.679C449.735 164.461 448.18 162.898 448.18 160.945V141.413C448.18 139.46 449.735 137.897 451.679 137.897H490.564C492.508 137.897 494.063 139.46 494.063 141.413V160.945C493.675 162.898 492.119 164.461 490.564 164.461Z" fill="#F2F5FC"/>
<path d="M531.003 124.616H519.726C517.782 124.616 516.227 123.053 516.227 121.1C516.227 119.147 517.782 117.584 519.726 117.584H531.003C532.947 117.584 534.502 119.147 534.502 121.1C534.502 123.053 532.558 124.616 531.003 124.616Z" fill="#DAE1ED"/>
<path d="M421.348 124.616H410.072C408.128 124.616 406.572 123.053 406.572 121.1C406.572 119.147 408.128 117.584 410.072 117.584H421.348C423.293 117.584 424.848 119.147 424.848 121.1C424.848 123.053 423.293 124.616 421.348 124.616Z" fill="#DAE1ED"/>
<path d="M470.732 185.165C468.788 185.165 467.232 183.603 467.232 181.65V170.321C467.232 168.368 468.788 166.805 470.732 166.805C472.676 166.805 474.232 168.368 474.232 170.321V181.65C473.843 183.994 472.287 185.165 470.732 185.165Z" fill="#DAE1ED"/>
<path d="M470.732 75.3939C468.788 75.3939 467.232 73.8314 467.232 71.8781V60.9401C467.232 58.9869 468.788 57.4243 470.732 57.4243C472.676 57.4243 474.232 58.9869 474.232 60.9401V72.2688C473.843 73.8314 472.287 75.3939 470.732 75.3939Z" fill="#DAE1ED"/>
<path d="M471.51 130.475C477.343 130.475 481.62 125.787 481.62 120.318C481.62 114.458 476.954 110.161 471.51 110.161C465.678 110.161 461.4 114.849 461.4 120.318C461.4 125.787 465.678 130.475 471.51 130.475Z" fill="#F2F5FC"/>
<path d="M515.06 79.3008C513.893 78.1289 511.949 78.1289 510.783 79.3008L474.62 117.584C474.231 117.584 474.231 117.584 474.231 117.584C471.509 117.584 469.565 119.537 469.565 122.272C469.565 122.662 469.565 122.662 469.565 123.053L463.732 129.303C462.566 130.475 462.566 132.428 463.732 133.6C464.51 134.382 464.899 134.382 465.676 134.382C466.454 134.382 467.232 133.991 467.621 133.6L473.453 127.35C473.842 127.35 473.842 127.35 473.842 127.35C476.564 127.35 478.508 125.397 478.508 122.662C478.508 122.272 478.508 122.272 478.508 121.881L514.671 83.9886C516.226 82.426 516.226 80.4728 515.06 79.3008Z" fill="#DAE1ED"/>
<path d="M512.339 76.9566C511.173 75.7847 509.229 75.7847 508.062 76.9566L471.899 115.24C471.511 115.24 471.511 115.24 471.511 115.24C468.789 115.24 466.844 117.193 466.844 119.927C466.844 120.318 466.844 120.318 466.844 120.709L461.012 126.959C459.845 128.131 459.845 130.084 461.012 131.256C461.789 132.037 462.178 132.037 462.956 132.037C463.734 132.037 464.511 131.647 464.9 131.256L470.733 125.006C471.122 125.006 471.122 125.006 471.122 125.006C473.844 125.006 475.788 123.053 475.788 120.318C475.788 119.927 475.788 119.927 475.788 119.537L511.951 81.6443C513.506 80.0817 513.506 78.1285 512.339 76.9566Z" fill="#EB358A"/>
<path d="M511.172 78.1287L461.789 129.694C461.4 129.694 461.4 129.694 461.011 129.694C460.622 128.912 460.622 128.131 461.4 127.74L508.839 77.7381C509.617 76.9568 510.395 76.9568 511.172 77.3474C511.172 77.3474 511.172 77.7381 511.172 78.1287Z" fill="#FF4FA2"/>
<path d="M488.619 7.81288V19.1416C488.619 23.4386 485.12 26.9544 480.842 26.9544H461.4C457.123 26.9544 453.623 23.4386 453.623 19.1416V7.81288C453.623 3.5158 457.123 0 461.4 0H480.842C485.12 0 488.619 3.5158 488.619 7.81288Z" fill="#1C3754"/>
<path d="M488.619 7.81288V19.1416C488.619 23.4386 485.12 26.9544 480.842 26.9544H461.4C457.123 26.9544 453.623 23.4386 453.623 19.1416V17.1883C454.79 22.6574 459.845 22.6574 459.845 22.6574H479.676C482.398 22.6574 484.731 20.3135 484.731 17.579V9.37546C484.731 3.5158 483.564 1.56258 480.842 0C485.12 0 488.619 3.5158 488.619 7.81288Z" fill="#172D45"/>
<path d="M413.572 48.8304L403.073 59.3778C400.74 61.7217 396.851 61.7217 394.518 59.3778L388.297 53.1275C385.964 50.7836 385.964 46.8772 388.297 44.5333L398.796 33.9859C401.129 31.6421 405.017 31.6421 407.35 33.9859L413.572 40.2362C415.905 42.5801 415.905 46.4865 413.572 48.8304Z" fill="#1C3754"/>
<path d="M530.227 48.8304L540.726 59.3778C543.059 61.7217 546.947 61.7217 549.28 59.3778L555.502 53.1275C557.835 50.7836 557.835 46.8772 555.502 44.5333L545.003 33.9859C542.67 31.6421 538.781 31.6421 536.448 33.9859L530.227 40.2362C528.282 42.5801 528.282 46.4865 530.227 48.8304Z" fill="#1C3754"/>
<path d="M471.509 121.092C471.898 121.092 472.287 120.704 472.287 120.315C472.287 119.926 471.898 119.537 471.509 119.537C471.12 119.537 470.731 119.926 470.731 120.315C470.731 120.704 471.12 121.092 471.509 121.092Z" fill="#1C3754"/>
<path opacity="0.4" d="M539.947 119.928H469.955V53.1279C470.733 53.1279 471.51 53.1279 472.288 53.1279C509.617 53.1279 539.558 83.2075 539.947 119.928Z" fill="url(#paint0_linear_82_4640)"/>
<path d="M25.0264 100.57C30.2477 100.57 34.4804 96.3327 34.4804 91.1061C34.4804 85.8796 30.2477 81.6426 25.0264 81.6426C19.8051 81.6426 15.5724 85.8796 15.5724 91.1061C15.5724 96.3327 19.8051 100.57 25.0264 100.57Z" fill="url(#paint1_linear_82_4640)"/>
<path d="M486.046 552.799C490.961 552.799 494.944 548.811 494.944 543.892C494.944 538.973 490.961 534.985 486.046 534.985C481.132 534.985 477.149 538.973 477.149 543.892C477.149 548.811 481.132 552.799 486.046 552.799Z" fill="url(#paint2_linear_82_4640)"/>
<path d="M432.659 335.093L371.487 483.17C369.818 486.51 369.262 490.407 369.262 494.304L368.706 506.551H127.907C119.565 506.551 112.892 499.314 113.448 490.964L121.234 411.915C122.902 394.658 110.668 379.071 93.428 376.844L48.9386 371.278L60.0609 298.909C71.1833 226.541 103.994 224.314 125.683 213.737C136.249 208.727 148.484 203.717 159.05 199.264C164.611 197.037 170.172 195.367 173.509 193.697C177.402 192.027 181.851 191.47 186.3 191.47C194.085 192.027 207.432 193.14 227.452 197.594C239.687 200.377 254.702 203.16 269.161 205.944C272.498 206.501 276.391 207.057 279.727 208.171C305.309 213.181 329.222 224.314 349.242 240.458L422.649 299.466C434.328 306.703 438.221 321.733 432.659 335.093Z" fill="#23476F"/>
<path d="M259.707 167.533V203.161C259.707 227.098 239.687 246.582 214.662 246.582C202.427 246.582 190.749 241.571 182.963 233.778C174.621 225.984 169.616 214.851 169.616 203.161V98.5049L259.707 167.533Z" fill="white"/>
<path d="M259.708 167.533V202.047C207.989 197.037 190.749 145.823 197.979 151.946C204.096 158.069 236.907 164.193 259.708 167.533Z" fill="url(#paint3_linear_82_4640)"/>
<path d="M290.848 43.3937C291.404 98.505 298.634 153.06 285.843 163.08C273.053 173.1 244.691 182.564 216.329 165.863C187.967 149.163 184.63 138.586 184.63 138.586L169.059 122.999L171.283 58.9808L216.329 26.6934L290.848 43.3937Z" fill="white"/>
<path d="M290.85 43.3938C290.85 43.3938 296.411 60.0942 272.498 59.5375C248.585 58.9808 219.667 51.1873 207.432 48.9606C195.198 46.1772 187.412 60.0942 187.412 60.0942V81.248L184.632 114.092C184.632 114.092 162.943 104.072 162.387 91.2682C161.831 78.4646 162.387 74.5678 162.387 74.5678L189.08 50.0739C189.08 50.0739 223.56 37.2703 225.228 35.6003C226.896 34.4869 262.488 26.1367 262.488 26.1367C262.488 26.1367 286.957 27.2501 289.182 30.5902C290.294 32.2602 290.85 36.1569 291.406 38.9403C290.85 41.7237 290.85 43.3938 290.85 43.3938Z" fill="#1C3754"/>
<path d="M174.156 126.251C182.711 125.37 188.857 116.97 187.883 107.489C186.909 98.0077 179.184 91.0355 170.629 91.9162C162.074 92.7968 155.928 101.197 156.902 110.678C157.876 120.159 165.601 127.131 174.156 126.251Z" fill="white"/>
<path d="M291.963 51.7435C291.407 51.7435 291.407 51.7435 290.85 52.3002C280.284 38.3832 263.045 30.5897 230.79 42.2799H230.234C229.121 42.8366 227.453 43.3933 225.785 43.95C224.116 44.5067 222.448 45.0633 220.78 46.1767C212.994 49.5168 200.759 56.1969 189.637 63.9904C175.734 73.454 163.5 85.7009 162.944 95.7211C159.607 82.3608 157.938 69.0005 157.382 55.6402C156.826 30.5897 187.969 4.42576 219.111 0.52901C235.795 -1.69771 249.142 3.3124 260.82 11.6626C270.83 18.8994 279.728 29.4763 287.514 40.0532L291.963 51.7435Z" fill="url(#paint4_linear_82_4640)"/>
<path d="M329.222 21.1228C326.441 35.0398 304.753 46.1734 290.85 51.7402C266.381 20.0095 217.999 43.9467 189.637 63.9871C190.193 63.4305 190.749 60.0904 191.305 59.5337C208.545 17.2261 337.008 -20.0714 329.222 21.1228Z" fill="#4562FF"/>
<path d="M274.721 99.0615C278.407 99.0615 281.395 96.0707 281.395 92.3813C281.395 88.692 278.407 85.7012 274.721 85.7012C271.036 85.7012 268.048 88.692 268.048 92.3813C268.048 96.0707 271.036 99.0615 274.721 99.0615Z" fill="#1C3754"/>
<path d="M227.452 99.0615C231.137 99.0615 234.125 96.0707 234.125 92.3813C234.125 88.692 231.137 85.7012 227.452 85.7012C223.766 85.7012 220.778 88.692 220.778 92.3813C220.778 96.0707 223.766 99.0615 227.452 99.0615Z" fill="#1C3754"/>
<g filter="url(#filter1_d_82_4640)">
<path d="M491.249 281.237L493.712 494.883C493.712 501.974 487.861 507.831 480.777 507.831H273.199C266.115 507.831 260.264 501.974 260.264 494.883V220.195C260.264 213.104 266.115 207.247 273.199 207.247H423.801L491.249 281.237Z" fill="#F0F3F9"/>
</g>
<path d="M423.801 207.555V266.439C423.801 274.455 430.884 281.545 439.2 281.545H491.556" fill="white"/>
<path d="M300.918 313.916C299.686 313.916 298.454 312.682 298.454 311.449C298.454 310.216 299.686 308.983 300.918 308.983H448.748C449.98 308.983 451.212 310.216 451.212 311.449C451.212 312.682 449.98 313.916 448.748 313.916H300.918Z" fill="#CED7E2"/>
<path d="M300.918 333.03C299.686 333.03 298.454 331.797 298.454 330.564C298.454 329.33 299.686 328.097 300.918 328.097H448.748C449.98 328.097 451.212 329.33 451.212 330.564C451.212 331.797 449.98 333.03 448.748 333.03H300.918Z" fill="#CED7E2"/>
<path d="M300.918 351.836C299.686 351.836 298.454 350.602 298.454 349.369C298.454 348.136 299.686 346.903 300.918 346.903H448.748C449.98 346.903 451.212 348.136 451.212 349.369C451.212 350.602 449.98 351.836 448.748 351.836H300.918Z" fill="#CED7E2"/>
<path d="M300.918 370.949C299.686 370.949 298.454 369.716 298.454 368.483C298.454 367.25 299.686 366.017 300.918 366.017H448.748C449.98 366.017 451.212 367.25 451.212 368.483C451.212 369.716 449.98 370.949 448.748 370.949H300.918Z" fill="#CED7E2"/>
<path d="M300.918 389.755C299.686 389.755 298.454 388.522 298.454 387.289C298.454 386.056 299.686 384.823 300.918 384.823H448.748C449.98 384.823 451.212 386.056 451.212 387.289C451.212 388.522 449.98 389.755 448.748 389.755H300.918Z" fill="#CED7E2"/>
<path d="M300.918 408.562C299.686 408.562 298.454 407.328 298.454 406.095C298.454 404.862 299.686 403.629 300.918 403.629H365.902C367.134 403.629 368.365 404.862 368.365 406.095C368.365 407.328 367.134 408.562 365.902 408.562H300.918Z" fill="#CED7E2"/>
<path d="M370.213 266.747H301.226C299.686 266.747 298.454 265.514 298.454 263.973C298.454 262.431 299.686 261.198 301.226 261.198H370.213C371.753 261.198 372.985 262.431 372.985 263.973C372.985 265.206 371.753 266.747 370.213 266.747Z" fill="#CED7E2"/>
<path d="M335.412 281.237H301.226C299.686 281.237 298.454 280.004 298.454 278.463C298.454 276.921 299.686 275.688 301.226 275.688H335.412C336.951 275.688 338.183 276.921 338.183 278.463C338.183 280.004 336.951 281.237 335.412 281.237Z" fill="#CED7E2"/>
<path d="M437.044 466.212C436.428 461.896 436.12 458.813 433.04 457.58C428.112 456.347 426.572 462.821 421.645 468.062C420.105 469.604 417.949 470.837 416.101 472.07C415.485 472.378 414.253 472.995 413.945 471.762C412.713 468.062 413.945 469.912 419.181 464.054C421.645 461.28 423.185 457.888 422.569 453.572C422.261 451.106 420.721 448.948 418.257 448.023C415.793 447.098 413.329 447.406 411.481 449.565C407.17 454.805 408.402 458.197 408.094 465.904C408.094 466.521 407.786 467.137 407.17 467.445C402.858 469.912 398.238 471.453 392.695 472.07C392.695 471.762 392.695 471.762 392.695 471.762C395.466 468.062 401.01 461.28 402.242 450.181C402.858 445.865 402.858 441.549 400.702 437.541C396.698 430.142 385.611 431.067 380.683 440.007C375.756 449.873 376.68 464.671 383.455 473.303C381.915 474.536 380.683 475.769 379.143 476.694C378.22 477.311 377.912 478.852 378.528 479.777C379.143 481.01 380.991 481.319 382.223 480.394C387.151 476.386 386.843 476.694 387.459 476.386C388.383 476.078 389.307 476.386 390.231 476.386C393.619 476.386 395.774 476.078 398.238 475.769C399.47 475.461 407.786 472.378 408.094 472.378C408.094 472.378 408.094 472.686 408.402 472.995C409.326 476.386 411.173 477.619 414.869 477.311C417.641 477.003 420.105 475.769 422.261 473.92C424.725 471.453 428.728 466.521 430.884 463.438C431.5 465.596 431.5 467.445 432.116 469.295C433.348 472.686 436.736 473.303 438.892 470.528C441.355 467.754 442.279 464.054 445.051 462.513C445.975 462.205 446.591 461.28 446.591 460.355C446.591 458.505 444.743 457.58 443.203 458.197C440.739 459.738 438.892 462.821 437.044 466.212ZM387.459 470.528C384.995 467.445 384.071 464.054 383.455 460.046C382.223 454.497 382.839 448.64 384.995 443.399C386.227 440.624 387.767 438.466 390.847 437.849C393.927 437.233 396.082 437.849 396.698 440.932C399.47 451.723 395.158 461.896 387.459 470.528ZM413.637 454.189C415.485 450.489 417.641 453.881 417.333 455.422C416.717 457.272 415.793 458.813 414.869 460.355C414.253 461.28 413.637 461.896 412.713 462.821C412.405 459.738 412.405 456.964 413.637 454.189Z" fill="url(#paint5_linear_82_4640)"/>
<path d="M326.786 478.852C324.63 481.01 321.55 482.243 319.086 480.394C315.391 477.619 314.159 477.002 311.695 476.694C308.615 476.386 305.843 476.078 304.919 472.686C304.611 471.761 304.611 471.145 304.611 470.22C304.303 468.062 303.379 465.904 301.84 464.054C299.684 461.588 298.144 459.43 299.684 456.655C301.532 453.572 303.379 452.339 303.379 448.64C303.379 447.406 303.379 446.482 303.687 445.557C304.303 443.09 306.459 441.241 308.923 441.241C309.847 441.241 310.771 440.932 311.695 440.932C314.775 440.624 315.699 438.466 319.702 436.924C320.934 436.308 322.166 436.616 323.398 437.233C324.322 437.849 325.246 438.466 326.478 439.391C329.25 441.549 331.098 440.624 335.101 441.857C336.949 442.474 337.873 444.015 338.181 445.557C338.181 447.406 338.797 449.564 339.413 451.106C340.953 454.189 344.033 455.73 343.725 459.121C343.725 459.738 343.417 460.663 343.109 460.971C341.569 462.821 340.337 465.287 339.413 467.754C339.105 468.679 339.105 469.295 339.105 470.22C339.105 472.07 338.489 473.611 337.257 474.536C333.561 478.236 330.174 475.461 326.786 478.852ZM307.383 467.445C312.311 474.536 321.858 476.694 329.25 471.761C336.333 467.445 338.181 457.58 333.869 450.798C333.869 450.798 333.869 450.489 333.561 450.489C328.942 443.399 318.778 441.241 311.695 446.173C304.611 450.489 302.763 460.355 307.075 467.137C307.383 467.137 307.383 467.445 307.383 467.445Z" fill="#CED7E2"/>
<path d="M313.237 448.331C319.088 444.323 327.404 445.865 331.715 452.031C335.719 457.58 334.179 465.596 328.636 469.603L328.328 469.912C322.476 473.92 314.16 472.07 309.849 466.212C305.845 460.663 307.385 452.647 312.929 448.64C312.929 448.331 312.929 448.331 313.237 448.331Z" fill="#CED7E2"/>
<path d="M120.121 426.389L130.131 326.743L140.697 433.626" fill="#112133"/>
<g filter="url(#filter2_d_82_4640)">
<path d="M342.57 455.336C343.126 459.233 339.789 462.573 336.452 463.13L330.335 463.687C330.335 463.687 309.202 460.347 308.09 475.377C306.978 487.624 313.095 492.077 329.779 512.674C333.672 517.685 330.335 524.921 324.218 525.478C282.509 528.818 280.84 528.818 248.03 496.531C243.581 492.077 237.463 489.294 231.346 489.294L146.26 488.737L70.6282 487.624C57.8375 481.5 50.0518 468.697 51.1641 454.223L55.613 370.721L125.128 379.628L121.235 418.039L239.688 441.976C239.688 441.976 269.718 448.1 293.631 446.986C311.427 446.43 326.442 447.543 336.452 448.1C339.233 449.213 342.013 451.996 342.57 455.336Z" fill="white"/>
</g>
<defs>
<filter id="filter0_d_82_4640" x="363.299" y="22.7104" width="217.977" height="218.779" filterUnits="userSpaceOnUse" color-interpolation-filters="sRGB">
<feFlood flood-opacity="0" result="BackgroundImageFix"/>
<feColorMatrix in="SourceAlpha" type="matrix" values="0 0 0 0 0 0 0 0 0 0 0 0 0 0 0 0 0 0 127 0" result="hardAlpha"/>
<feOffset dy="11"/>
<feGaussianBlur stdDeviation="11"/>
<feColorMatrix type="matrix" values="0 0 0 0 0.397708 0 0 0 0 0.47749 0 0 0 0 0.575 0 0 0 0.18 0"/>
<feBlend mode="normal" in2="BackgroundImageFix" result="effect1_dropShadow_82_4640"/>
<feBlend mode="normal" in="SourceGraphic" in2="effect1_dropShadow_82_4640" result="shape"/>
</filter>
<filter id="filter1_d_82_4640" x="238.264" y="196.247" width="277.449" height="344.584" filterUnits="userSpaceOnUse" color-interpolation-filters="sRGB">
<feFlood flood-opacity="0" result="BackgroundImageFix"/>
<feColorMatrix in="SourceAlpha" type="matrix" values="0 0 0 0 0 0 0 0 0 0 0 0 0 0 0 0 0 0 127 0" result="hardAlpha"/>
<feOffset dy="11"/>
<feGaussianBlur stdDeviation="11"/>
<feColorMatrix type="matrix" values="0 0 0 0 0.397708 0 0 0 0 0.47749 0 0 0 0 0.575 0 0 0 0.26 0"/>
<feBlend mode="normal" in2="BackgroundImageFix" result="effect1_dropShadow_82_4640"/>
<feBlend mode="normal" in="SourceGraphic" in2="effect1_dropShadow_82_4640" result="shape"/>
</filter>
<filter id="filter2_d_82_4640" x="29.0588" y="359.721" width="335.572" height="200.185" filterUnits="userSpaceOnUse" color-interpolation-filters="sRGB">
<feFlood flood-opacity="0" result="BackgroundImageFix"/>
<feColorMatrix in="SourceAlpha" type="matrix" values="0 0 0 0 0 0 0 0 0 0 0 0 0 0 0 0 0 0 127 0" result="hardAlpha"/>
<feOffset dy="11"/>
<feGaussianBlur stdDeviation="11"/>
<feColorMatrix type="matrix" values="0 0 0 0 0.397708 0 0 0 0 0.47749 0 0 0 0 0.575 0 0 0 0.18 0"/>
<feBlend mode="normal" in2="BackgroundImageFix" result="effect1_dropShadow_82_4640"/>
<feBlend mode="normal" in="SourceGraphic" in2="effect1_dropShadow_82_4640" result="shape"/>
</filter>
<linearGradient id="paint0_linear_82_4640" x1="465.252" y1="66.5559" x2="528.052" y2="129.098" gradientUnits="userSpaceOnUse">
<stop stop-color="#EF4896"/>
<stop offset="1" stop-color="#F14D9A" stop-opacity="0"/>
</linearGradient>
<linearGradient id="paint1_linear_82_4640" x1="15.5724" y1="91.2319" x2="33.9543" y2="91.2319" gradientUnits="userSpaceOnUse">
<stop stop-color="#83A6FF"/>
<stop offset="1" stop-color="#5A78FF"/>
</linearGradient>
<linearGradient id="paint2_linear_82_4640" x1="477.31" y1="543.702" x2="494.573" y2="543.702" gradientUnits="userSpaceOnUse">
<stop stop-color="#FF66A9"/>
<stop offset="1" stop-color="#F53689"/>
</linearGradient>
<linearGradient id="paint3_linear_82_4640" x1="221.689" y1="190.735" x2="230.01" y2="173.866" gradientUnits="userSpaceOnUse">
<stop stop-color="#E3E7F5"/>
<stop offset="0.9913" stop-color="#CED5E6"/>
</linearGradient>
<linearGradient id="paint4_linear_82_4640" x1="157.373" y1="47.9325" x2="291.731" y2="47.9325" gradientUnits="userSpaceOnUse">
<stop stop-color="#83A6FF"/>
<stop offset="1" stop-color="#5A78FF"/>
</linearGradient>
<linearGradient id="paint5_linear_82_4640" x1="377.737" y1="456.753" x2="447.434" y2="456.753" gradientUnits="userSpaceOnUse">
<stop stop-color="#83A6FF"/>
<stop offset="1" stop-color="#5A78FF"/>
</linearGradient>
</defs>
</svg>
